<svg width="24" height="24" version="1.1" xmlns="http://www.w3.org/2000/svg" desc="Created with imagetracer.js version 1.2.6" ><path fill="rgb(0,0,0)" stroke="rgb(0,0,0)" stroke-width="1" opacity="0" d="M 0 0 L 2 0.5 L 2 24 L 0 23.5 L 0 0 Z " /><path fill="rgb(0,0,0)" stroke="rgb(0,0,0)" stroke-width="1" opacity="0" d="M 20.5 0 L 24 0.5 L 24 24 L 22 23.5 L 22 2.5 L 20.5 0 Z " /><path fill="rgb(0,0,0)" stroke="rgb(0,0,0)" stroke-width="1" opacity="0" d="M 4 2 L 16.5 2 L 17 5 Q 10.7 6.5 11.5 3 L 5 3 L 5.5 7 L 19 7 L 19.5 5 L 20 22 L 4 22 L 4 2 Z M 6 8 L 6 9 L 18 9 L 6 8 Z M 5 10 L 6 14 L 19 14 L 19 10 L 5 10 Z M 6 15 L 6 16 L 18 16 L 6 15 Z M 5 17 L 5 21 Q 10 22 10 19 L 19 19 L 19 17 L 5 17 Z " /><path fill="rgb(255,255,255)" stroke="rgb(255,255,255)" stroke-width="1" opacity="0.25882352941176473" d="M 4.5 1 L 17 1.5 L 4.5 2 L 4.5 1 Z " /><path fill="rgb(255,255,255)" stroke="rgb(255,255,255)" stroke-width="1" opacity="0.25882352941176473" d="M 5 3 L 11.5 3 L 12 5 L 5.5 5 L 5 3 Z " /><path fill="rgb(255,255,255)" stroke="rgb(255,255,255)" stroke-width="1" opacity="0.25882352941176473" d="M 17.5 4 L 20 4.5 L 17.5 5 L 17.5 4 Z " /><path fill="rgb(255,255,255)" stroke="rgb(255,255,255)" stroke-width="1" opacity="0.25882352941176473" d="M 5.5 10 L 6.5 11 L 17.5 11 L 19 12.5 L 18.5 14 L 17.5 13 L 6.5 13 L 5 13.5 L 5.5 10 Z " /><path fill="rgb(255,255,255)" stroke="rgb(255,255,255)" stroke-width="1" opacity="0.25882352941176473" d="M 5 19 Q 9.1 17.7 8 21 Q 3.9 22.3 5 19 Z " /><path fill="rgb(255,255,255)" stroke="rgb(255,255,255)" stroke-width="1" opacity="0.25882352941176473" d="M 4.5 22 L 20 22.5 L 4.5 23 L 4.5 22 Z " /><path fill="rgb(255,255,255)" stroke="rgb(255,255,255)" stroke-width="1" opacity="0.0392156862745098" d="M 19.5 0 L 21.5 3 L 19.5 0 Z " /><path fill="rgb(255,255,255)" stroke="rgb(255,255,255)" stroke-width="1" opacity="0.0392156862745098" d="M 5.5 5 L 19 5.5 L 5.5 6 L 5.5 5 Z " /><path fill="rgb(255,255,255)" stroke="rgb(255,255,255)" stroke-width="1" opacity="0.0392156862745098" d="M 18.5 17 L 19 19 L 9.5 19 L 9 20.5 L 8 20.5 Q 8.8 17.9 5.5 19 L 5.5 18 L 17.5 18 L 18.5 17 Z " /><path fill="rgb(255,255,255)" stroke="rgb(255,255,255)" stroke-width="1" opacity="0.7058823529411765" d="M 2 0 L 18.5 0 L 22 3.5 L 22 24 L 2 24 L 2 0 Z M 4 1 L 4 23 L 20 23 L 20 4 L 17 4 L 17 1 L 4 1 Z " /><path fill="rgb(255,255,255)" stroke="rgb(255,255,255)" stroke-width="1" opacity="0.7058823529411765" d="M 5.5 6 L 19 6.5 L 5.5 7 L 5.5 6 Z " /><path fill="rgb(255,255,255)" stroke="rgb(255,255,255)" stroke-width="1" opacity="0.7058823529411765" d="M 5.5 8 L 17 8.5 L 5.5 9 L 5.5 8 Z " /><path fill="rgb(255,255,255)" stroke="rgb(255,255,255)" stroke-width="1" opacity="0.7058823529411765" d="M 6.5 10 L 18 10.5 L 6.5 11 L 6.5 10 Z " /><path fill="rgb(255,255,255)" stroke="rgb(255,255,255)" stroke-width="1" opacity="0.7058823529411765" d="M 6.5 13 L 18 13.5 L 6.5 14 L 6.5 13 Z " /><path fill="rgb(255,255,255)" stroke="rgb(255,255,255)" stroke-width="1" opacity="0.7058823529411765" d="M 5.5 15 L 17 15.5 L 5.5 16 L 5.5 15 Z " /><path fill="rgb(255,255,255)" stroke="rgb(255,255,255)" stroke-width="1" opacity="0.7058823529411765" d="M 5.5 17 L 18 17.5 L 5.5 18 L 5.5 17 Z " /></svg>