<?xml version="1.0" encoding="UTF-8"?>
<svg xmlns="http://www.w3.org/2000/svg" xmlns:xlink="http://www.w3.org/1999/xlink" width="24px" height="24px" viewBox="0 0 24 24" version="1.1">
<g id="surface1">
<path style=" stroke:none;fill-rule:evenodd;fill:rgb(100%,100%,100%);fill-opacity:1;" d="M 22.5 18.75 L 17.25 15 L 17.25 6 L 22.5 2.25 Z M 15.75 14.25 L 13.5 14.25 L 13.5 6.75 L 15.75 6.75 Z M 12 14.25 L 6 14.25 C 4.507812 14.25 1.5 13.8125 1.5 10.5 C 1.5 7.1875 4.460938 6.703125 6 6.75 L 12 6.75 Z M 8.25 21 C 8.25 21.414062 7.914062 21.75 7.5 21.75 L 6.75 21.75 C 6.335938 21.75 6 21.414062 6 21 L 6 15.75 L 8.25 15.75 Z M 22.5 0.75 L 15.75 5.25 L 6 5.25 C 2.6875 5.25 0 7.1875 0 10.5 C 0 13.300781 1.90625 15.253906 4.5 15.75 C 4.535156 15.953125 4.5 21.75 4.5 21.75 C 4.5 22.578125 5.171875 23.25 6 23.25 L 8.25 23.25 C 9.078125 23.25 9.75 22.578125 9.75 21.75 L 9.75 15.75 L 15.75 15.75 L 22.5 20.25 C 23.328125 20.25 24 19.578125 24 18.75 L 24 2.25 C 24 1.421875 23.328125 0.75 22.5 0.75 Z M 22.5 0.75 "/>
</g>
</svg>
