<svg width="24" height="24" version="1.1" xmlns="http://www.w3.org/2000/svg" desc="Created with imagetracer.js version 1.2.6" ><path fill="rgb(0,0,0)" stroke="rgb(0,0,0)" stroke-width="1" opacity="0" d="M 0 0 L 24 0 L 24 9 L 19 9 L 19 15 L 24 15 L 24 24 L 0 24 L 0 15 L 5 15 L 5 9 L 0 9 L 0 0 Z M 9 9 L 9 15 L 15 15 L 15 9 L 9 9 Z " /><path fill="rgb(255,255,255)" stroke="rgb(255,255,255)" stroke-width="1" opacity="0.3764705882352941" d="M 14.5 10 L 15 13.5 L 14 13.5 L 14.5 10 Z " /><path fill="rgb(255,255,255)" stroke="rgb(255,255,255)" stroke-width="1" opacity="0.5882352941176471" d="M 4.5 10 L 5 13.5 L 4 13.5 L 4.5 10 Z " /><path fill="rgb(255,255,255)" stroke="rgb(255,255,255)" stroke-width="1" opacity="0.9882352941176471" d="M 0 10 Q 6 8 4 14 Q -2 16 0 10 Z " /><path fill="rgb(255,255,255)" stroke="rgb(255,255,255)" stroke-width="1" opacity="0.9882352941176471" d="M 10 10 Q 16 8 14 14 Q 8 16 10 10 Z " /><path fill="rgb(255,255,255)" stroke="rgb(255,255,255)" stroke-width="1" opacity="0.9882352941176471" d="M 19 10 Q 26.1 7.6 24 14 Q 16.9 16.4 19 10 Z " /><path fill="rgb(255,255,255)" stroke="rgb(255,255,255)" stroke-width="1" opacity="0.48627450980392156" d="M 9.5 10 L 10 13.5 L 9 13.5 L 9.5 10 Z " /><path fill="rgb(255,255,255)" stroke="rgb(255,255,255)" stroke-width="1" opacity="0.5647058823529412" d="M 0.5 9 L 4 9.5 L 0.5 10 L 0.5 9 Z " /><path fill="rgb(255,255,255)" stroke="rgb(255,255,255)" stroke-width="1" opacity="0.5647058823529412" d="M 10.5 9 L 14 9.5 L 10.5 10 L 10.5 9 Z " /><path fill="rgb(255,255,255)" stroke="rgb(255,255,255)" stroke-width="1" opacity="0.5647058823529412" d="M 20.5 9 L 24 9.5 L 20.5 10 L 20.5 9 Z " /><path fill="rgb(255,255,255)" stroke="rgb(255,255,255)" stroke-width="1" opacity="0.5647058823529412" d="M 0.5 14 L 4 14.5 L 0.5 15 L 0.5 14 Z " /><path fill="rgb(255,255,255)" stroke="rgb(255,255,255)" stroke-width="1" opacity="0.5647058823529412" d="M 10.5 14 L 14 14.5 L 10.5 15 L 10.5 14 Z " /><path fill="rgb(255,255,255)" stroke="rgb(255,255,255)" stroke-width="1" opacity="0.5647058823529412" d="M 20.5 14 L 24 14.5 L 20.5 15 L 20.5 14 Z " /></svg>