<?xml version="1.0" encoding="UTF-8"?>
<svg width="1200pt" height="1200pt" version="1.1" viewBox="0 0 1200 1200" xmlns="http://www.w3.org/2000/svg">
 <path d="m211.55 828.71c56.016 35.344 120.94 54.141 187.18 54.141 66.234 0 131.11-18.797 187.13-54.141 3.8906-2.4844 6.2344-6.7031 6.2344-11.297v-28.688c-0.046876-41.438-13.406-81.797-38.109-115.12-24.703-33.281-59.438-57.797-99.094-69.891 33.422-24.328 47.438-67.406 34.641-106.73-12.797-39.328-49.453-65.953-90.797-65.953-41.391 0-78.047 26.625-90.797 65.953-12.797 39.328 1.1719 82.406 34.641 106.73-39.703 12.094-74.438 36.609-99.094 69.891-24.703 33.328-38.062 73.688-38.109 115.12v28.688c0 4.5938 2.3438 8.8125 6.1875 11.297zm118.31-302.16h0.046875c0-27.844 16.734-52.922 42.469-63.562 25.734-10.688 55.312-4.7812 75 14.906s25.594 49.266 14.906 75c-10.641 25.688-35.719 42.469-63.562 42.469-38.016-0.046875-68.766-30.797-68.812-68.812zm-97.828 262.18c-0.42188-44.438 17.016-87.188 48.281-118.78 31.312-31.547 73.922-49.312 118.41-49.312 44.438 0 87.047 17.766 118.36 49.312 31.312 31.594 48.703 74.344 48.328 118.78v21.281c-50.391 30.047-108 45.938-166.69 45.938-58.688 0-116.3-15.891-166.69-45.938zm-40.359-481.31c0-3.5156 1.3594-6.8906 3.8906-9.4219 2.4844-2.4844 5.9062-3.8906 9.4219-3.8906h25.219c7.3594 0 13.312 5.9531 13.312 13.312 0 7.4062-5.9531 13.359-13.312 13.359h-25.219c-3.5156 0-6.9375-1.4062-9.4219-3.8906-2.4844-2.5312-3.8906-5.9062-3.8906-9.4688zm92.672 0c0-7.3594 5.9531-13.312 13.312-13.312h25.219c7.3594 0 13.312 5.9531 13.312 13.312 0 7.4062-5.9531 13.359-13.312 13.359h-25.219c-7.3125-0.046876-13.266-6-13.266-13.359zm92.672 0c0-7.3594 6-13.312 13.359-13.312h145.31c7.3594 0 13.359 5.9531 13.359 13.312 0 7.4062-6 13.359-13.359 13.359h-145.31c-7.3594 0-13.359-6-13.359-13.359zm689.63-70.266h-933.32c-7.3594 0-13.312 5.9531-13.312 13.312v699.1c0 7.3594 5.9531 13.312 13.312 13.312h933.37c3.5156 0 6.8906-1.4062 9.4219-3.8906 2.4844-2.5312 3.8906-5.9062 3.8906-9.4219v-699.1c0-3.5156-1.4062-6.8906-3.8906-9.4219-2.5312-2.4844-5.9062-3.8906-9.4219-3.8906zm-13.312 26.672v87.234h-906.66v-87.234zm0 672.37h-906.66v-558.47h906.66zm-248.11-474.32c0-7.3594 5.9531-13.312 13.312-13.312h149.76c7.3594 0 13.312 5.9531 13.312 13.312 0 7.3594-5.9531 13.312-13.312 13.312h-149.76c-3.5625 0-6.9375-1.4062-9.4219-3.8906-2.5312-2.4844-3.8906-5.9062-3.8906-9.4219zm0 59.438c0-3.5625 1.3594-6.9375 3.8906-9.4219 2.4844-2.5312 5.9062-3.9375 9.4219-3.9375h149.76c7.2188 0.23438 12.938 6.1406 12.938 13.359s-5.7188 13.125-12.938 13.312h-149.76c-7.3594 0-13.312-5.9531-13.312-13.312zm-171.84 36.188h105.14c7.3594 0 13.359-6 13.359-13.359v-105.14c0-7.3594-6-13.312-13.359-13.312h-105.14c-7.3594 0-13.312 5.9531-13.312 13.312v105.14c0 3.5625 1.4062 6.9375 3.8906 9.4688 2.4844 2.4844 5.9062 3.8906 9.4219 3.8906zm13.359-105.09h78.469v78.469h-78.469zm158.48 174.84c0-7.3594 5.9531-13.359 13.312-13.359h149.76c7.2188 0.23438 12.938 6.1406 12.938 13.359s-5.7188 13.125-12.938 13.359h-149.76c-3.5625-0.046875-6.9375-1.4531-9.4219-3.9375-2.5312-2.4844-3.8906-5.9062-3.8906-9.4219zm0 59.438c0-3.5625 1.3594-6.9375 3.8906-9.4219 2.4844-2.5312 5.9062-3.9375 9.4219-3.9375h149.76c7.3594 0 13.312 6 13.312 13.359s-5.9531 13.312-13.312 13.312h-149.76c-7.3594 0-13.312-5.9531-13.312-13.312zm-171.84 36.188h105.14c7.3594 0 13.359-5.9531 13.359-13.312v-105.19c0-7.3594-6-13.312-13.359-13.312h-105.14c-3.5156 0-6.9375 1.4062-9.4219 3.8906-2.4844 2.5312-3.8906 5.9062-3.8906 9.4219v105.19c0 7.3594 5.9531 13.312 13.312 13.312zm13.312-105.14h78.469v78.469h-78.422zm158.53 174.89c0-3.5156 1.3594-6.9375 3.8906-9.4219 2.4844-2.4844 5.8594-3.8906 9.4219-3.8906h149.76c7.3594 0 13.312 5.9531 13.312 13.312s-5.9531 13.312-13.312 13.312h-149.76c-7.3594 0-13.312-5.9531-13.312-13.312zm0 59.391c0-3.5156 1.3594-6.9375 3.8906-9.4219 2.4844-2.5312 5.9062-3.8906 9.4219-3.8906h149.76c7.3594 0 13.312 5.9531 13.312 13.312s-5.9531 13.312-13.312 13.312h-149.76c-3.5625 0-6.9375-1.4062-9.4219-3.8906-2.5312-2.4844-3.8906-5.9062-3.8906-9.4219zm-171.84 36.234h105.14c7.3594 0 13.359-6 13.359-13.359v-105.14c0-7.3594-6-13.312-13.359-13.312h-105.14c-3.5156 0-6.9375 1.4062-9.4219 3.8906-2.4844 2.5312-3.8906 5.9062-3.8906 9.4219v105.14c0 3.5625 1.4062 6.9375 3.8906 9.4688 2.4844 2.4844 5.9062 3.8906 9.4219 3.8906zm13.312-105.14h78.469l0.046875 78.516h-78.469z" fill="#fff"/>
</svg>
