<?xml version="1.0" encoding="UTF-8"?>
<svg width="1200pt" height="1200pt" version="1.1" viewBox="0 0 1200 1200" xmlns="http://www.w3.org/2000/svg">
 <path d="m1100 600c0 276.14-223.87 500.02-500.02 500.02s-500.02-223.87-500.02-500.02 223.87-500.02 500.02-500.02 500.02 223.87 500.02 500.02zm-164.63-300.05c71.25 79.641 114.61 184.78 114.61 300.05 0 248.53-201.47 450-450 450-115.27 0-220.4-43.359-300.05-114.61zm-35.344-35.344-635.44 635.44c-71.25-79.641-114.61-184.78-114.61-300.05 0-248.53 201.47-450 450-450 115.27 0 220.4 43.359 300.05 114.61z" fill="#fff" fill-rule="evenodd"/>
</svg>
