<?xml version="1.0" encoding="UTF-8"?>
<svg width="1200pt" height="1200pt" version="1.1" viewBox="0 0 1200 1200" xmlns="http://www.w3.org/2000/svg">
 <path d="m1000.6 416.2v-5.9531l-4.3789-4.6406c-0.058594-0.058593-0.12109-0.13281-0.17969-0.19141l-273.56-290.16c-0.035157-0.046875-0.085938-0.085938-0.12109-0.13281l-4.1758-4.4297h-6.4922c-0.046875 0-0.097656-0.023438-0.14453-0.023438s-0.097656 0.023438-0.14453 0.023438l-368.83 0.003906c-56.555 0-102.59 46.031-102.59 102.59v787.66c0 56.578 46.031 102.61 102.59 102.61h555.45c56.555 0 102.59-46.031 102.59-102.61l-0.003907-584.44c0-0.046875 0.035157-0.097656 0.035157-0.14453 0.003906-0.058593-0.035157-0.09375-0.035157-0.15625zm-273.68-251.38 222.66 236.14h-150.84c-39.602 0-71.82-32.207-71.82-71.82zm242.92 836.12c0 39.602-32.207 71.844-71.82 71.844h-555.45c-39.602 0-71.82-32.242-71.82-71.844v-787.67c0-39.602 32.207-71.82 71.82-71.82h353.58v140.27l-305.95-0.003906c-8.5078 0-15.383 6.875-15.383 15.383 0 8.5078 6.875 15.383 15.383 15.383l305.95 0.003907v16.645c0 15.613 3.7812 30.254 10.043 43.512h-316c-8.5078 0-15.383 6.875-15.383 15.383s6.875 15.383 15.383 15.383h338.2c18.395 17.426 43.066 28.309 70.344 28.309h171.1zm-121.45-446.46h-458.18c-8.5078 0-15.383 6.875-15.383 15.383 0 8.5078 6.875 15.383 15.383 15.383h458.18c8.5078 0 15.383-6.8867 15.383-15.383 0-8.5078-6.8867-15.383-15.383-15.383zm-473.57-75.551c0 8.5078 6.875 15.383 15.383 15.383h458.18c8.5078 0 15.383-6.875 15.383-15.383 0-8.5078-6.8867-15.383-15.383-15.383l-458.18-0.003906c-8.5078 0-15.383 6.8906-15.383 15.387zm473.57 166.47h-458.18c-8.5078 0-15.383 6.875-15.383 15.383 0 8.5078 6.875 15.383 15.383 15.383h458.18c8.5078 0 15.383-6.875 15.383-15.383 0-8.5039-6.8867-15.383-15.383-15.383zm0 90.926h-458.18c-8.5078 0-15.383 6.875-15.383 15.383 0 8.5078 6.875 15.383 15.383 15.383h458.18c8.5078 0 15.383-6.875 15.383-15.383 0-8.4961-6.8867-15.383-15.383-15.383zm0 90.926h-458.18c-8.5078 0-15.383 6.8867-15.383 15.383 0 8.5078 6.875 15.383 15.383 15.383h458.18c8.5078 0 15.383-6.8867 15.383-15.383s-6.8867-15.383-15.383-15.383zm0 90.898h-458.18c-8.5078 0-15.383 6.875-15.383 15.383 0 8.5078 6.875 15.383 15.383 15.383h458.18c8.5078 0 15.383-6.875 15.383-15.383 0-8.4961-6.8867-15.383-15.383-15.383z" fill="#fff"/>
</svg>
