<?xml version="1.0" encoding="UTF-8"?>
<svg width="1200pt" height="1200pt" version="1.1" viewBox="0 0 1200 1200" xmlns="http://www.w3.org/2000/svg">
 <path d="m942.18 97.055h-510.3c-5.0508 0-9.875 2.0039-13.441 5.5664l-174.06 173.97c-3.5625 3.5625-5.5664 8.3867-5.5664 13.441v793.91c0 10.512 8.5078 19.008 19.008 19.008h684.36c10.5 0 19.008-8.5078 19.008-19.008v-967.88c0-10.512-8.5078-19.008-19.008-19.008zm-543.47 79.035 14.16-14.148v109.08h-109.13zm524.46 888.84h-646.34v-755.89h155.05c10.512 0 19.008-8.4961 19.008-19.008v-154.96h472.27v929.86zm-412.36-810.6c0-10.5 8.5078-19.008 19.008-19.008h314.45c10.512 0 19.008 8.5078 19.008 19.008 0 10.512-8.4961 19.008-19.008 19.008h-314.45c-10.5 0-19.008-8.4961-19.008-19.008zm352.46 138.28c0 10.512-8.4961 19.008-19.008 19.008h-488.51c-10.512 0-19.008-8.5078-19.008-19.008 0-10.512 8.5078-19.008 19.008-19.008h488.51c10.512-0.011718 19.008 8.4961 19.008 19.008zm0 138.26c0 10.5-8.4961 19.008-19.008 19.008h-488.51c-10.512 0-19.008-8.5078-19.008-19.008 0-10.512 8.5078-19.008 19.008-19.008h488.51c10.512 0 19.008 8.4961 19.008 19.008zm0 138.27c0 10.512-8.4961 19.008-19.008 19.008h-488.51c-10.512 0-19.008-8.5078-19.008-19.008 0-10.512 8.5078-19.008 19.008-19.008h488.51c10.512 0 19.008 8.4961 19.008 19.008zm0 138.26c0 10.512-8.4961 19.008-19.008 19.008h-488.51c-10.512 0-19.008-8.4961-19.008-19.008s8.5078-19.008 19.008-19.008h488.51c10.512 0 19.008 8.5078 19.008 19.008zm0 138.28c0 10.512-8.4961 19.008-19.008 19.008h-488.51c-10.512 0-19.008-8.5078-19.008-19.008s8.5078-19.008 19.008-19.008h488.51c10.512 0 19.008 8.4961 19.008 19.008z" fill="#fff"/>
</svg>
