<?xml version="1.0" encoding="UTF-8"?>
<svg width="1200pt" height="1200pt" version="1.1" viewBox="0 0 1200 1200" xmlns="http://www.w3.org/2000/svg">
 <path d="m337.5 537.52h187.5c6.8906 0 12.516-5.625 12.516-12.516s-5.625-12.516-12.516-12.516h-187.5c-16.359 0.23438-16.5 24.75 0 24.984z" fill="#fff"/>
 <path d="m412.5 675c0 6.8906 5.625 12.516 12.516 12.516h437.48c16.266-0.23438 16.5-24.75 0-24.984h-437.48c-6.8906 0-12.516 5.625-12.516 12.516z" fill="#fff"/>
 <path d="m862.5 737.48h-525c-16.266 0.23438-16.641 24.75 0 24.984h525c16.266-0.23438 16.641-24.75 0-24.984z" fill="#fff"/>
 <path d="m862.5 812.48h-525c-16.266 0.23438-16.641 24.75 0 24.984h525c16.266-0.23438 16.641-24.75 0-24.984z" fill="#fff"/>
 <path d="m862.5 887.48h-525c-16.266 0.23438-16.641 24.75 0 24.984h525c16.266-0.23438 16.641-24.75 0-24.984z" fill="#fff"/>
 <path d="m624.98 962.48h-287.48c-16.359 0.23438-16.5 24.75 0 24.984h287.48c16.359-0.23438 16.5-24.75 0-24.984z" fill="#fff"/>
 <path d="m337.5 462.52h185.39c16.359-0.23438 16.5-24.75 0-24.984h-185.39c-16.359 0.23438-16.5 24.75 0 24.984z" fill="#fff"/>
 <path d="m337.5 387.52h187.5c6.8906 0 12.516-5.625 12.516-12.516s-5.625-12.516-12.516-12.516h-187.5c-16.359 0.23438-16.5 24.75 0 24.984z" fill="#fff"/>
 <path d="m337.5 312.52h187.5c6.8906 0 12.516-5.625 12.516-12.516s-5.625-12.516-12.516-12.516h-187.5c-16.359 0.23438-16.5 24.75 0 24.984z" fill="#fff"/>
 <path d="m1012.5 125.02h-56.25c2.8594-99.234-140.39-99.234-137.48 0h-568.74c-6.8906 0-12.516 5.625-12.516 12.516v50.016h-50.016c-6.8906 0-12.516 5.625-12.516 12.516v937.5c0 6.8906 5.625 12.516 12.516 12.516h699.98c6.8906 0 12.516-5.625 12.516-12.516v-50.016h50.016c6.8906 0 12.516-5.625 12.516-12.516v-462.52h50.016c6.8906 0 12.516-5.625 12.516-12.516l-0.046875-462.52c0-6.8906-5.625-12.516-12.516-12.516zm-168.74-6.2812c3-61.875 92.109-55.641 87.516 6.2344h-87.516zm31.266 1006.3h-675v-912.52h37.5v862.5c0 6.8906 5.625 12.516 12.516 12.516h624.98zm62.484-62.484h-675v-912.52h312.52v450c0 6.8906 5.625 12.516 12.516 12.516h350.02v450zm62.484-475.03h-399.98v-437.48h331.26v118.73c-1.875 57.75-85.641 57.891-87.516 0v-65.625c0.375-20.484 30.891-20.484 31.266 0v46.875c0 6.8906 5.625 12.516 12.516 12.516s12.516-5.625 12.516-12.516v-46.875c-1.7344-53.625-79.5-53.766-81.234 0v65.625c3.2344 90.984 134.26 90.984 137.48 0v-118.73h43.734v437.48z" fill="#fff"/>
 <path d="m662.48 275.02h112.5c16.359-0.23438 16.5-24.75 0-24.984h-112.5c-16.359 0.23438-16.5 24.75 0 24.984z" fill="#fff"/>
 <path d="m937.5 375h-275.02c-16.359 0.23438-16.5 24.75 0 24.984h275.02c16.359-0.23438 16.5-24.75 0-24.984z" fill="#fff"/>
 <path d="m937.5 437.48h-275.02c-16.359 0.23438-16.5 24.75 0 24.984h275.02c16.359-0.23438 16.5-24.75 0-24.984z" fill="#fff"/>
 <path d="m825 500.02h-162.52c-6.8906 0-12.516 5.625-12.516 12.516s5.625 12.516 12.516 12.516h162.52c16.359-0.23438 16.5-24.75 0-24.984z" fill="#fff"/>
</svg>
