<?xml version="1.0" encoding="UTF-8"?>
<svg width="1200pt" height="1200pt" version="1.1" viewBox="0 0 1200 1200" xmlns="http://www.w3.org/2000/svg">
 <path d="m599.59 358.18c-3.1719 0.066407-6.1289 1.1172-8.9727 3.0703l-287.17 226.71c-6.6055 5.3047-7.543 15.098-2.5977 21.492 4.875 6.3008 15.246 7.3086 21.492 2.3633l277.73-219.16 277.73 219.16c6.2461 4.9492 16.328 3.9023 21.254-2.3633 4.8867-6.2148 4.3633-16.543-2.3633-21.492l-287.17-226.71c-3.3633-2.2148-6.7461-3.1367-9.918-3.0703zm-188.46 203.34-30.23 23.852v241.36h0.003906c0 4.0078 1.5938 7.8516 4.4258 10.688 2.8359 2.832 6.6797 4.4258 10.688 4.4258h136.03c4.0117 0 7.8555-1.5938 10.688-4.4258 2.8359-2.8359 4.4297-6.6797 4.4297-10.688v-136.03h105.8v136.03c0 4.0078 1.5898 7.8516 4.4258 10.688 2.8359 2.832 6.6797 4.4258 10.688 4.4258h136.03c4.0078 0 7.8516-1.5938 10.688-4.4258 2.8359-2.8359 4.4258-6.6797 4.4258-10.688v-241.36l-30.23-23.852v250.09h-105.8v-136.03l0.003906-0.003906c0-4.0078-1.5938-7.8516-4.4258-10.688-2.8359-2.832-6.6797-4.4258-10.688-4.4258h-136.03c-4.0078 0-7.8516 1.5938-10.684 4.4258-2.8359 2.8359-4.4297 6.6797-4.4297 10.688v136.03h-105.8v-250.09z" fill="#fff"/>
</svg>
