<?xml version="1.0" encoding="UTF-8"?>
<svg width="1200pt" height="1200pt" version="1.1" viewBox="0 0 1200 1200" xmlns="http://www.w3.org/2000/svg">
 <path d="m1150.3 355.62-343.98-344.06c-3.4766-3.4766-8.1914-5.4375-13.113-5.4375h-389.63c-90.688 0-164.46 73.777-164.46 164.47v325.51h-144.34c-27.883 0-50.57 22.691-50.57 50.57v290.72c0 27.883 22.691 50.57 50.57 50.57l144.34 0.003906v141.45c0 90.688 73.777 164.47 164.46 164.47h587.7c90.688 0 164.47-73.777 164.47-164.47l-0.003907-660.7c0-4.9102-1.957-9.625-5.4336-13.102zm-338.56-286.18 280.68 280.73h-262.12c-10.223 0-18.539-8.3516-18.539-18.613v-262.11zm-730.46 767.95v-290.72c0-7.4336 6.0508-13.48 13.48-13.48h792.46c7.4336 0 13.48 6.0508 13.48 13.48v290.72c0 7.4336-6.0508 13.48-13.48 13.48l-792.46 0.003906c-7.4336 0-13.48-6.0508-13.48-13.484zm909.98 319.4h-587.69c-70.238 0-127.37-57.133-127.37-127.37v-141.45h611.03c27.883 0 50.57-22.691 50.57-50.57v-290.72c0-27.883-22.691-50.57-50.57-50.57h-611.03v-325.5c0-70.238 57.133-127.37 127.37-127.37h371.08v288.36c0 30.711 24.957 55.703 55.629 55.703h288.36v642.15c0.007813 70.219-57.137 127.36-127.38 127.36zm-605.44-365.23c0 10.238-8.3008 18.551-18.551 18.551h-119.55c-10.238 0-18.551-8.3008-18.551-18.551v-199.05c0-10.238 8.3008-18.551 18.551-18.551 10.238 0 18.551 8.3008 18.551 18.551v180.52h101.01c10.238-0.015626 18.539 8.3008 18.539 18.535zm247.45-166.31v133.55c0 7.8359 6.3672 14.203 14.203 14.203h54.051c7.8359 0 14.203-6.3672 14.203-14.203v-39.062h-41.23c-10.238 0-18.551-8.3008-18.551-18.551s8.3008-18.551 18.551-18.551h59.781c10.238 0 18.551 8.3008 18.551 18.551v57.602c0 28.285-23.008 51.293-51.293 51.293h-54.059c-28.285 0-51.293-23.008-51.293-51.293l-0.003906-133.54c0-28.285 23.008-51.293 51.293-51.293h54.051c28.285 0 51.293 23.008 51.293 51.293 0 10.238-8.3008 18.551-18.551 18.551-10.238 0-18.551-8.3008-18.551-18.551 0-7.8359-6.3672-14.203-14.203-14.203l-54.035-0.003906c-7.8242 0-14.207 6.3828-14.207 14.207zm-156.5-51.293c-43.188 0-78.32 35.129-78.32 78.32v79.434c0 43.223 35.129 78.391 78.32 78.391 43.188 0 78.32-35.168 78.32-78.391v-79.434c-0.003906-43.18-35.133-78.32-78.32-78.32zm41.227 157.76c0 22.777-18.488 41.301-41.23 41.301-22.738 0-41.23-18.527-41.23-41.301v-79.434c0-22.738 18.488-41.23 41.23-41.23 22.738 0 41.23 18.488 41.23 41.23z" fill="#fff"/>
</svg>
