<?xml version="1.0" encoding="UTF-8"?>
<svg width="1200pt" height="1200pt" version="1.1" viewBox="0 0 1200 1200" xmlns="http://www.w3.org/2000/svg">
 <path d="m812.48 425.72v-213.24c0-27.562-22.453-50.016-50.016-50.016s-50.016 22.453-50.016 50.016v5.625l-414.79 156.89h-110.2c-23.25 0-42.656 15.984-48.234 37.5h-14.297c-48.234 0-87.516 39.234-87.516 87.516v75c0 48.234 39.234 87.516 87.516 87.516h14.297c5.5781 21.516 24.984 37.5 48.234 37.5h99.984v275.02c0 34.453 28.031 62.484 62.484 62.484s62.484-28.031 62.484-62.484v-231.56l300 113.48v5.625c0 27.562 22.453 50.016 50.016 50.016s50.016-22.453 50.016-50.016v-213.24c56.156-6.2344 99.984-53.953 99.984-111.75 0-57.797-43.828-105.52-99.984-111.75zm-750 149.29v-75c0-34.453 28.031-62.484 62.484-62.484h12.516v200.02h-12.516c-34.453 0-62.484-28.031-62.484-62.484zm99.984 75v-225c0-13.781 11.203-24.984 24.984-24.984h99.984v275.02h-99.984c-13.781 0-24.984-11.203-24.984-24.984zm225 324.98c0 20.672-16.828 37.5-37.5 37.5s-37.5-16.828-37.5-37.5v-269.39l75 28.359zm-75-296.16v-282.74l399.98-151.31v585.32l-399.98-151.31zm474.98 183.66c0 13.781-11.203 24.984-24.984 24.984s-24.984-11.203-24.984-24.984v-650.02c0-13.781 11.203-24.984 24.984-24.984s24.984 11.203 24.984 24.984zm24.984-238.5v-173.02c42.328 6.0938 75 42.516 75 86.484 0 44.016-32.672 80.391-75 86.484zm350.02-86.484c0 6.8906-5.5781 12.516-12.516 12.516h-150c-6.8906 0-12.516-5.5781-12.516-12.516 0-6.8906 5.5781-12.516 12.516-12.516h150c6.8906 0 12.516 5.5781 12.516 12.516zm-206.76-104.39c-3.8438-5.7188-2.2969-13.5 3.4219-17.344l93.047-62.391c5.7188-3.8438 13.5-2.2969 17.344 3.4219s2.2969 13.5-3.4219 17.344l-93.047 62.391c-2.1562 1.4531-4.5469 2.1094-6.9375 2.1094-4.0312 0-7.9688-1.9219-10.406-5.5312zm110.39 267.74c5.7188 3.8438 7.2656 11.625 3.4219 17.344-2.3906 3.6094-6.375 5.5312-10.406 5.5312-2.3906 0-4.8281-0.70313-6.9375-2.1094l-93.047-62.391c-5.7188-3.8438-7.2656-11.625-3.4219-17.344s11.625-7.2656 17.344-3.4219z" fill="#fff"/>
</svg>
