<?xml version="1.0" encoding="UTF-8"?>
<svg width="1200pt" height="1200pt" version="1.1" viewBox="0 0 1200 1200" xmlns="http://www.w3.org/2000/svg">
 <path d="m742.34 194.59h25.227c28.828 0 50.449 21.621 50.449 50.449v609.01c0 25.227-21.621 46.848-50.449 46.848h-25.227c-25.227 0-46.848-18.02-50.449-43.242-72.07-64.863-154.95-104.5-252.25-122.52l72.07 230.63c7.207 25.227 3.6055 36.035-18.02 39.641h-140.54c-10.812 3.6055-28.828-7.207-36.035-36.035l-75.676-248.65c-46.848 0-82.883 0-118.92-36.035h-36.035c-28.828 0-50.449-21.621-50.449-46.848v-180.18c0-28.828 21.621-43.242 50.449-43.242h36.035c21.621-25.227 50.449-39.641 79.277-39.641 201.8 0 331.53-10.812 490.09-140.54 3.6055-21.621 25.227-39.641 50.449-39.641zm183.79 378.38c-25.227 0-25.227-43.242 0-43.242h216.21c32.434 0 32.434 43.242 0 43.242zm194.59 234.23c25.227 18.02-3.6055 50.449-25.227 36.035l-183.79-140.54c-21.621-18.02 7.207-57.656 28.828-36.035l180.18 140.54zm-180.18-371.17c-21.621 21.621-50.449-14.414-28.828-32.434l183.79-140.54c21.621-21.621 50.449 18.02 25.227 32.434l-180.18 140.54zm-248.65 360.36v-504.5c-158.56 118.92-291.89 129.73-490.09 129.73-28.828 0-54.055 21.621-54.055 57.656v140.54c0 28.828 25.227 54.055 54.055 54.055 190.99 0 338.74 3.6055 490.09 122.52zm46.848 57.656h3.6055 25.227 3.6055v-609.01c0-3.6055-3.6055-3.6055-3.6055-3.6055h-25.227s-3.6055 0-3.6055 3.6055zm-637.84-396.39s-14.414-3.6055-21.621 3.6055v176.58c0 3.6055 21.621 0 21.621 0zm363.96 504.5-72.07-237.84c-43.242-3.6055-68.469-3.6055-104.5-3.6055l72.07 241.44z" fill="#fff"/>
</svg>
