<?xml version="1.0" encoding="UTF-8"?>
<svg xmlns="http://www.w3.org/2000/svg" xmlns:xlink="http://www.w3.org/1999/xlink" width="24px" height="1600px" viewBox="0 0 24 24" version="1.1">
<g id="surface1">
<path style=" stroke:none;fill-rule:evenodd;fill:rgb(100%,100%,100%);fill-opacity:1;" d="M 18.574219 14.988281 L 13.785156 3.316406 C 13.695312 3.09375 13.523438 2.914062 13.300781 2.816406 C 13.085938 2.71875 12.839844 2.714844 12.621094 2.804688 C 12.164062 2.992188 11.941406 3.515625 12.128906 3.976562 C 13.617188 7.820312 15.265625 11.882812 16.898438 15.664062 C 16.992188 15.886719 17.171875 16.0625 17.394531 16.148438 C 17.621094 16.238281 17.871094 16.238281 18.097656 16.144531 C 18.316406 16.058594 18.488281 15.886719 18.578125 15.671875 C 18.667969 15.453125 18.667969 15.207031 18.574219 14.988281 Z M 14.175781 3.175781 L 15.726562 6.953125 C 16.820312 6.621094 17.988281 7.171875 18.421875 8.230469 C 18.855469 9.289062 18.414062 10.503906 17.398438 11.035156 L 18.957031 14.828125 C 19.089844 15.148438 19.09375 15.507812 18.960938 15.828125 C 18.832031 16.140625 18.582031 16.390625 18.269531 16.519531 C 18.257812 16.527344 18.246094 16.53125 18.234375 16.535156 C 17.914062 16.660156 17.558594 16.660156 17.242188 16.53125 C 16.960938 16.421875 16.726562 16.214844 16.578125 15.953125 L 7.371094 16.011719 L 9.214844 20.457031 C 9.257812 20.5625 9.207031 20.683594 9.105469 20.726562 L 6.851562 21.660156 L 6.851562 21.65625 C 6.746094 21.703125 6.625 21.652344 6.582031 21.542969 L 4.726562 16.964844 L 4.570312 17.03125 L 4.570312 17.027344 C 4.527344 17.046875 4.480469 17.046875 4.433594 17.035156 L 2.375 16.425781 C 2.3125 16.40625 2.261719 16.359375 2.238281 16.296875 L 1.214844 13.863281 C 1.191406 13.804688 1.195312 13.738281 1.226562 13.683594 L 2.289062 11.785156 L 2.285156 11.785156 C 2.308594 11.746094 2.34375 11.714844 2.390625 11.695312 L 4.921875 10.652344 L 11.699219 4.003906 C 11.515625 3.367188 11.835938 2.691406 12.449219 2.429688 C 12.460938 2.425781 12.472656 2.417969 12.484375 2.414062 C 12.800781 2.289062 13.15625 2.296875 13.46875 2.4375 C 13.78125 2.578125 14.027344 2.828125 14.160156 3.140625 C 14.164062 3.152344 14.171875 3.164062 14.175781 3.175781 Z M 15.882812 7.335938 C 16.765625 7.089844 17.691406 7.542969 18.039062 8.390625 C 18.386719 9.234375 18.046875 10.210938 17.242188 10.652344 Z M 16.402344 15.539062 L 7.203125 15.601562 L 5.28125 10.875 L 11.863281 4.421875 Z M 19.90625 10.789062 C 19.804688 10.746094 19.753906 10.625 19.796875 10.519531 C 19.839844 10.414062 19.960938 10.363281 20.066406 10.410156 L 22.671875 11.503906 C 22.722656 11.523438 22.765625 11.5625 22.785156 11.613281 C 22.804688 11.664062 22.804688 11.722656 22.785156 11.773438 C 22.761719 11.824219 22.722656 11.867188 22.671875 11.886719 C 22.621094 11.90625 22.5625 11.90625 22.511719 11.882812 L 19.910156 10.789062 Z M 18.054688 5.535156 C 18.011719 5.640625 17.890625 5.691406 17.785156 5.644531 C 17.679688 5.601562 17.628906 5.480469 17.675781 5.375 L 18.769531 2.769531 C 18.8125 2.664062 18.933594 2.617188 19.039062 2.660156 C 19.144531 2.703125 19.195312 2.824219 19.148438 2.929688 L 18.058594 5.535156 Z M 20.066406 7.769531 C 19.960938 7.8125 19.839844 7.757812 19.796875 7.652344 C 19.753906 7.546875 19.804688 7.425781 19.910156 7.382812 L 22.515625 6.324219 C 22.621094 6.28125 22.742188 6.332031 22.785156 6.4375 C 22.824219 6.542969 22.777344 6.664062 22.667969 6.707031 Z M 5.113281 16.8125 L 6.886719 21.195312 L 8.753906 20.421875 L 6.953125 16.078125 Z M 4.925781 11.09375 L 2.613281 12.050781 L 1.632812 13.796875 L 2.585938 16.054688 L 4.480469 16.617188 L 6.792969 15.691406 Z M 4.925781 11.09375 "/>
</g>
</svg>
