<?xml version="1.0" encoding="UTF-8"?>
<svg width="1200pt" height="1200pt" version="1.1" viewBox="0 0 1200 1200" xmlns="http://www.w3.org/2000/svg">
 <path d="m711.56 176.45c-14.449 0-28.402 4.0547-41.641 11.629-0.64844 0.23828-1.2969 0.43359-1.9219 0.75781l-346.91 177.77h-107.48c-84.695 0-153.59 76.777-153.59 171.14 0 94.367 68.891 171.13 153.59 171.13h12.539l-0.011719 225.52c-0.011718 24.215 10.68 46.883 30.098 63.828 18.695 16.32 43.32 25.309 69.324 25.32 54.816 0 99.422-39.996 99.422-89.148l-0.011718-172.29 243.04 124.54c0.5625 0.28906 1.1641 0.42188 1.7383 0.64844 13.297 7.6445 27.312 11.734 41.82 11.734 90.793 0 161.91-158.7 161.91-361.29 0.011719-202.59-71.113-361.29-161.91-361.29zm-367.47 502.56v-282.54l261.57-134.03c-34.477 65.773-56.027 163.86-56.027 275.3 0 111.45 21.551 209.53 56.039 275.3zm-247-141.27c0-73.922 52.262-134.06 116.51-134.06h93.422v268.12h-93.422c-64.25 0-116.51-60.133-116.51-134.05zm290.8 396.65c0 28.715-27.973 52.066-62.34 52.066-17.027 0-32.988-5.7461-44.941-16.176-11.23-9.793-17.41-22.547-17.41-35.891l0.011719-225.53h57.863l66.805 34.223zm323.66-72.441c-59.051 0-124.85-133.14-124.85-324.2s65.797-324.2 124.85-324.2c59.039 0 124.84 133.15 124.84 324.2 0 191.05-65.793 324.2-124.84 324.2zm55.141-324.21c0 55.848-41.16 101.28-91.766 101.28-10.234 0-18.539-8.3047-18.539-18.539s8.3047-18.539 18.539-18.539c30.156 0 54.684-28.801 54.684-64.199 0-35.398-24.527-64.199-54.684-64.199-10.234 0-18.539-8.3047-18.539-18.539 0-10.234 8.3047-18.539 18.539-18.539 50.605-0.015625 91.766 45.426 91.766 101.27zm168.28-205.34c-5.1133-8.8672-2.0742-20.207 6.793-25.32l128.99-74.473c8.8906-5.1484 20.184-2.0898 25.332 6.7812 5.1133 8.8672 2.0742 20.207-6.793 25.32l-128.99 74.473c-2.9297 1.6914-6.1094 2.4844-9.2539 2.4844-6.418 0.011719-12.633-3.3125-16.078-9.2656zm205.01 205.92c0 10.234-8.3047 18.539-18.539 18.539h-132.82c-10.234 0-18.539-8.3047-18.539-18.539 0-10.234 8.3047-18.539 18.539-18.539h132.82c10.246 0 18.539 8.3047 18.539 18.539zm-45.926 297.78c-3.4453 5.9414-9.6602 9.2773-16.078 9.2773-3.1445 0-6.3242-0.80469-9.2539-2.4844l-128.66-74.293c-8.8672-5.125-11.902-16.453-6.793-25.32 5.125-8.8672 16.43-11.93 25.332-6.7812l128.66 74.293c8.8711 5.0977 11.906 16.438 6.793 25.309z" fill="#fff"/>
</svg>
