<?xml version="1.0" encoding="UTF-8"?>
<svg width="1200pt" height="1200pt" version="1.1" viewBox="0 0 1200 1200" xmlns="http://www.w3.org/2000/svg">
 <path d="m531.3 190.8c5.5938 0 10.961-2.2227 14.914-6.1797 3.957-3.9531 6.1797-9.3203 6.1797-14.914v-41.555c-0.27734-12.266 4.3984-24.125 12.977-32.898 8.5781-8.7734 20.328-13.723 32.598-13.723 12.27 0 24.02 4.9492 32.598 13.723 8.5781 8.7734 13.254 20.633 12.977 32.898v41.438c0 7.5352 4.0195 14.5 10.547 18.27 6.5273 3.7656 14.566 3.7656 21.094 0 6.5273-3.7695 10.547-10.734 10.547-18.27v-41.438c0.38281-23.523-8.6914-46.219-25.191-62.992-16.5-16.77-39.043-26.215-62.57-26.215s-46.07 9.4453-62.57 26.215c-16.5 16.773-25.574 39.469-25.191 62.992v41.555c0 5.5938 2.2227 10.961 6.1797 14.914 3.9531 3.957 9.3203 6.1797 14.914 6.1797z" fill="#fff"/>
 <path d="m958.29 853.73v-303.16c-0.011718-83.258-28.859-163.94-81.645-228.33-52.781-64.387-126.24-108.5-207.88-124.85-46.742-9.2344-94.844-9.2344-141.59 0-167.48 33.633-289.05 182.11-289.05 353.18v303.4l-66.891 124.36c-3.5156 6.543-3.332 14.449 0.48438 20.82 3.8164 6.3711 10.699 10.27 18.125 10.258h820.31c7.5-0.003906 14.434-3.9883 18.215-10.469 3.7773-6.4805 3.8281-14.48 0.13672-21.008zm-733.29 113.48 52.688-97.945c1.6484-3.0703 2.5078-6.5 2.5078-9.9844v-308.72c0-151.03 107.3-282.12 255.14-311.72 41.297-8.1562 83.789-8.1562 125.09 0 72.035 14.457 136.84 53.406 183.41 110.23 46.57 56.824 72.031 128.02 72.059 201.49v308.72c0.003906 3.6406 0.94922 7.2148 2.7422 10.383l55.172 97.57z" fill="#fff"/>
 <path d="m692.55 1014.3c-5.4336 1.3359-10.113 4.7773-13.008 9.5625-2.8984 4.7852-3.7734 10.527-2.4375 15.961 4.6484 19.02 0.30469 39.117-11.785 54.52-12.09 15.398-30.582 24.395-50.16 24.395h-34.359c-19.57-0.019532-38.051-9.0195-50.137-24.414-12.086-15.395-16.438-35.484-11.809-54.5 1.8008-7.3203-0.44141-15.043-5.8789-20.258-5.4375-5.2188-13.246-7.1406-20.484-5.0391-7.2383 2.0977-12.805 7.8984-14.605 15.219-7.75 31.613-0.54688 65.039 19.539 90.652 20.082 25.617 50.824 40.582 83.375 40.598h34.336c32.551-0.015625 63.293-14.98 83.375-40.598 20.086-25.613 27.289-59.039 19.539-90.652-1.3359-5.4297-4.7734-10.102-9.5547-13-4.7812-2.8945-10.516-3.7734-15.945-2.4453z" fill="#fff"/>
</svg>
