<?xml version="1.0" encoding="UTF-8"?>
<svg width="1200pt" height="1200pt" version="1.1" viewBox="0 0 1200 1200" xmlns="http://www.w3.org/2000/svg">
 <path d="m268.91 866.73c68.363 0 124-55.637 124-124 0-68.363-55.637-124-124-124-68.363 0-124 55.637-124 124-0.18359 68.184 55.637 124 124 124zm0-213.45c49.273 0 89.273 40 89.273 89.273s-40 89.273-89.273 89.273c-49.273 0-89.273-40-89.273-89.273s40-89.273 89.273-89.273z" fill="#fff"/>
 <path d="m427.45 943.64c-55.453-36.91-103.64-64.547-175.27-56.184-67.637 7.8164-133.64 48.547-181.09 111.64-31.09 41.273-40.547 75.09-28.363 100.55 11.453 24 40.184 36.727 85.637 38.184 30.363 0.91016 60.91 1.4531 92.184 1.4531 44.184 0 89.637-0.91016 137.09-2.9102 6.7266-0.18359 15.816 0 26 0.36328 44.547 1.4531 105.82 3.4531 127.82-29.816 6-9.0898 8-20.363 6-33.637-7.4531-46.727-67.637-114.73-90-129.64zm55.094 144c-11.453 17.09-67.637 15.273-97.816 14.184-11.273-0.36328-21.09-0.72656-28.547-0.36328-80 3.2734-154.18 3.6367-226.73 1.4531-30-0.91016-50.184-7.6367-55.273-18.547-5.8164-12.363 3.0898-35.816 24.727-64.727 41.09-54.727 99.816-91.273 157.27-98 7.4531-0.91016 14.547-1.2734 21.273-1.2734 48.727 0 84.363 21.09 130.73 52 20.363 13.453 69.816 73.816 74.91 106.18 0.72266 5.0898 0.17969 8-0.54688 9.0898z" fill="#fff"/>
 <path d="m1161.6 1073.3c-7.4531-46.91-67.637-114.73-90-129.82-55.453-36.91-103.64-64.547-175.27-56.184-67.637 7.8164-133.64 48.547-181.09 111.64-31.09 41.273-40.547 75.09-28.363 100.55 11.453 24 40.184 36.727 85.637 38.184 30.363 0.91016 60.91 1.4531 92.184 1.4531 44.184 0 89.637-0.91016 137.09-2.9102 6.7266-0.18359 15.816 0 26 0.36328 44.727 1.4531 105.82 3.4531 127.82-29.637 6-8.9102 8-20.184 6-33.637zm-34.91 14.363c-11.453 17.09-67.637 15.273-97.816 14.184-11.273-0.36328-21.09-0.72656-28.547-0.36328-80 3.2734-154.18 3.6367-226.73 1.4531-30-0.91016-50.184-7.6367-55.273-18.547-5.8164-12.363 3.0898-35.816 24.727-64.727 41.09-54.727 99.816-91.273 157.27-98 7.4531-0.91016 14.547-1.2734 21.273-1.2734 48.727 0 84.363 21.09 130.73 52 20.363 13.453 69.816 73.816 74.91 106.18 0.72656 5.0898 0.17969 8-0.54688 9.0898z" fill="#fff"/>
 <path d="m375.27 550.73c11.453 24 40.184 36.727 85.637 38.184 30 0.91016 60.727 1.4531 92 1.4531 44.547 0 90.363-0.91016 137.09-2.9102 6.9102-0.18359 15.816 0 26 0.36328 44.727 1.4531 105.82 3.4531 127.82-29.816 6-9.0898 8-20.363 5.8164-33.637-18.91-119.82-158.36-198.36-265.27-186-67.637 7.8164-133.64 48.547-181.09 111.64-30.723 41.453-40.359 75.273-27.996 100.73zm56-79.816c41.09-54.727 99.816-91.273 157.27-98 6.1836-0.72656 12.363-1.0898 18.727-1.0898 87.273 0 193.45 65.09 208.18 158 0.91016 6.1836-0.18359 8.3633-0.54688 8.9102-11.453 17.09-67.637 15.273-97.816 14.184-11.273-0.36328-21.273-0.72656-28.547-0.36328-78.727 3.2734-155.09 3.6367-226.73 1.4531-30-0.91016-50.184-7.6367-55.273-18.547-5.8203-12.184 3.0898-35.641 24.727-64.547z" fill="#fff"/>
 <path d="m798 742.55c0 68.363 55.637 124 124 124s124-55.637 124-124-55.637-124-124-124-124 55.637-124 124zm213.45 0c0 49.273-40 89.273-89.273 89.273-49.273 0-89.273-40-89.273-89.273s40-89.273 89.273-89.273c49.094 0 89.273 40 89.273 89.273z" fill="#fff"/>
 <path d="m610.55 308.91c68.363 0 124-55.637 124-124 0-68.363-55.637-124-124-124s-124 55.637-124 124c0 68.363 55.637 124 124 124zm0-213.46c49.273 0 89.273 40 89.273 89.273 0 49.273-40 89.273-89.273 89.273s-89.273-40-89.273-89.273c0-49.09 40-89.273 89.273-89.273z" fill="#fff"/>
 <path d="m165.09 567.64c1.4531 0.36328 2.9102 0.54688 4.5469 0.54688 7.6367 0 14.727-5.0898 16.727-12.91 30.727-115.82 104.36-221.64 202.36-290.55 7.8164-5.4531 9.8164-16.363 4.1836-24.184-5.4531-7.8164-16.363-9.8164-24.184-4.1836-104.54 73.457-183.27 186.37-216 310-2.3633 9.2734 3.0898 18.727 12.363 21.273z" fill="#fff"/>
 <path d="m796.36 245.45c99.637 51.453 168 156.91 173.82 268.91 0.54687 9.2734 8.1836 16.547 17.273 16.547h0.91016c9.6367-0.54688 16.91-8.7266 16.363-18.363-6.5469-124.18-82.184-241.09-192.55-298-8.5469-4.3633-18.91-1.0898-23.453 7.4531-4.3633 8.5469-0.91016 19.09 7.6367 23.453z" fill="#fff"/>
 <path d="m715.64 889.45c-3.8164-8.9102-14-12.91-22.91-9.0898-78.547 33.816-173.27 28.363-247.45-14-8.3633-4.7266-18.91-1.8164-23.637 6.5469-4.7266 8.3633-1.8164 18.91 6.5469 23.637 47.09 26.91 101.45 40.547 155.82 40.547 42 0 84-8.1836 122.55-24.727 8.9062-3.8203 12.906-14.004 9.0898-22.914z" fill="#fff"/>
 <path d="m234.55 770c2-2.9102-1.2734-8.5469-4.1836-16.91-2.9102-8.1836-5.2734-19.637-2.9102-30.91 2.3633-11.273 9.0898-20.727 15.273-26.91 6-6.3633 11.273-10.184 10.547-13.816-0.54688-3.0898-8.3633-5.6367-20-1.0898-11.273 4.1836-25.816 16.727-30.184 36.727-4.1836 20 4.1836 37.273 12.727 45.816 8.7305 8.7305 16.91 9.6406 18.73 7.0938z" fill="#fff"/>
 <path d="m954 796.55c1.6367 2.7266 9.0898 2.1836 18.184-4.7266 8.9102-6.7266 18.184-20.363 21.09-37.273 2.9102-16.91-1.2734-32.91-7.4531-42.184-6.1836-9.4531-12.91-12.547-15.453-10.547-5.2734 4.5469 3.2734 24.184-1.6367 48.547-3.457 24.363-18.184 40.184-14.73 46.184z" fill="#fff"/>
 <path d="m612 145.82c15.09 6.3633 23.09 18.184 30 17.273 3.0898-0.54688 5.6367-6.3633 3.0898-15.09-2.3633-8.5469-10.363-19.09-22.727-24.91-12.363-5.6367-25.637-5.0898-33.637-1.0898-8.1836 3.8164-10.91 9.4531-9.2734 12.184 3.8203 5.8164 17.82 4.1797 32.547 11.633z" fill="#fff"/>
</svg>
