<?xml version="1.0" encoding="UTF-8"?>
<svg width="1200pt" height="1200pt" version="1.1" viewBox="0 0 1200 1200" xmlns="http://www.w3.org/2000/svg">
 <path d="m600 327.95c-150.07 0-272.05 121.98-272.05 272.05s121.98 272.06 272.05 272.06 272.06-121.98 272.06-272.06-121.98-272.05-272.06-272.05zm0 30.227c133.74 0 241.83 108.09 241.83 241.83 0 133.74-108.09 241.83-241.83 241.83-133.73 0-241.83-108.09-241.83-241.83 0-133.73 108.09-241.83 241.83-241.83zm-0.23438 98.242c-38.043 0.39453-72.578 24.984-89.031 61.641-2.0898 3.6875-2.5312 8.0781-1.2266 12.109 1.3086 4.0273 4.2461 7.3242 8.0977 9.0859 3.8516 1.7578 8.2695 1.8203 12.168 0.17188 3.9023-1.6484 6.9336-4.8594 8.3555-8.8516 11.969-26.672 37.078-43.566 61.871-43.926h0.23828c21.938 0.21094 38.766 6.7188 50.066 17.004 11.344 10.324 17.711 24.594 17.711 43.453 0 9.8047-3.2656 17.43-9.6836 25.977s-16.129 17.262-26.449 26.453c-20.641 18.379-46.27 40.414-46.996 75.57-0.10156 4.0117 1.3984 7.9023 4.168 10.809 2.7695 2.9062 6.5781 4.5898 10.594 4.6836 4.0117 0.09375 7.8984-1.4102 10.801-4.1836 2.8984-2.7734 4.5781-6.5859 4.668-10.602 0.41797-20.352 16.203-35.23 36.84-53.609 10.32-9.1875 21.477-18.965 30.465-30.934 8.9883-11.973 15.824-26.766 15.824-44.164 0-26.23-9.9453-49.789-27.633-65.891-17.688-16.098-42.539-24.594-70.613-24.797h-0.23438zm-7.3203 256.95c-4.1875 0-7.5586 3.3711-7.5586 7.5547v15.117c0 4.1875 3.3711 7.5547 7.5586 7.5547h15.113c4.1875 0 7.5586-3.3672 7.5586-7.5547v-15.117c0-4.1836-3.3711-7.5547-7.5586-7.5547z" fill="#fff"/>
</svg>
