<?xml version="1.0" encoding="UTF-8"?>
<svg width="1200pt" height="1200pt" version="1.1" viewBox="0 0 1200 1200" xmlns="http://www.w3.org/2000/svg">
 <path d="m897.71 52.594c-70.172 0.09375-137.48 28.031-187.13 77.672-49.641 49.641-77.578 116.95-77.672 187.13-0.14062 55.781 17.531 110.11 50.438 155.11-12.188 28.828-29.531 55.266-51.094 77.953-5.1562 5.3906-6.6094 13.359-3.75 20.203 2.9062 6.8906 9.6094 11.391 17.109 11.484h0.42188c42.375-1.3125 83.672-13.453 120-35.297 71.344 40.969 157.64 46.5 233.63 14.859 75.938-31.594 132.89-96.75 154.03-176.26 21.188-79.453 4.2188-164.29-45.938-229.5s-127.78-103.41-210.05-103.36zm0 492.1c-43.266 0-85.641-12.422-122.06-35.766-6.375-4.0781-14.531-3.8906-20.766 0.42188-19.688 13.406-41.625 23.203-64.781 28.922 13.078-19.359 23.859-40.172 32.109-62.016 2.3438-6.1406 1.2656-13.078-2.8125-18.234-31.828-39.938-49.125-89.531-48.984-140.63 0-60.281 23.953-118.08 66.562-160.74 42.609-42.609 100.45-66.562 160.74-66.562 60.281 0 118.12 23.906 160.74 66.562 42.609 42.609 66.562 100.45 66.562 160.74 0 60.281-23.906 118.08-66.562 160.74-42.609 42.609-100.45 66.562-160.74 66.562z" fill="#fff"/>
 <path d="m894.66 140.44c-62.297 0.09375-112.83 50.578-112.92 112.92 0 10.031 1.3125 20.062 3.8906 29.766 2.6719 9.9844 12.984 15.938 22.969 13.266 4.7812-1.3125 8.9062-4.4531 11.391-8.7656s3.1406-9.4219 1.875-14.203c-1.7812-6.5625-2.625-13.312-2.625-20.062-0.046875-28.266 15.656-54.141 40.734-67.172 25.078-12.984 55.312-10.922 78.375 5.3906 23.062 16.266 35.109 44.062 31.219 72.047s-23.062 51.469-49.688 60.844c-7.5469 2.8125-14.672 6.6562-21.234 11.344-22.594 20.297-33.797 50.344-30 80.438 0.65625 9.8906 8.8594 17.531 18.75 17.484h1.3125-0.046875c10.359-0.70312 18.141-9.6094 17.438-19.969-2.8125-17.625 2.9531-35.531 15.516-48.234 3.3281-2.25 6.8906-4.1719 10.641-5.625 51.844-18.281 82.969-71.297 73.688-125.48-9.2344-54.188-56.203-93.797-111.19-93.891z" fill="#fff"/>
 <path d="m887.95 445.82c-10.359 0-18.75 8.3906-18.75 18.75v11.016c0 10.359 8.3906 18.75 18.75 18.75s18.75-8.3906 18.75-18.75v-11.016c0-4.9688-1.9688-9.75-5.4844-13.266s-8.2969-5.4844-13.266-5.4844z" fill="#fff"/>
 <path d="m951.74 784.78h-326.81v-13.312 0.046875c0.09375-34.734-13.688-68.016-38.297-92.484s-57.844-38.25-92.484-38.344h-266.16c-50.531 0-98.953 20.109-134.72 55.828-35.719 35.719-55.781 84.188-55.781 134.72v188.26c0 33.938 13.453 66.469 37.453 90.469 24 23.953 56.531 37.453 90.469 37.453h663.32c6.8906 0 13.219-3.75 16.5-9.7969l151.03-277.97c8.5312-15.703 8.2031-34.734-0.9375-50.109-9.1406-15.328-25.688-24.75-43.594-24.75zm-786.32 325.13c-49.922 0-90.422-40.5-90.422-90.422v-188.26c0-40.594 16.125-79.5 44.812-108.19 28.688-28.734 67.641-44.859 108.19-44.859h266.16c24.703 0.09375 48.422 9.8906 65.953 27.328 17.578 17.484 27.375 41.25 27.328 66v13.312h-8.6719v-0.046874c-28.922 0.046874-55.594 15.516-70.031 40.547l-79.594 138.42h-159.14c-19.781 0-35.859-16.078-35.859-35.859v-65.391c0-10.359-8.3906-18.75-18.75-18.75s-18.75 8.3906-18.75 18.75v65.391c0.046875 40.5 32.859 73.312 73.359 73.359h137.48l-62.438 108.66zm797.9-268.13-100.03 184.08-203.29-0.046875c-10.359 0-18.75 8.3906-18.75 18.75s8.3906 18.75 18.75 18.75h182.86l-25.359 46.594h-429.14l152.86-265.87v-0.046875c7.7344-13.406 22.031-21.656 37.5-21.703h373.03c4.6406 0 8.9531 2.4375 11.297 6.4219 2.3906 3.9844 2.4844 8.9531 0.23438 13.031z" fill="#fff"/>
 <path d="m313.74 263.16c-68.531 0.046875-130.31 41.297-156.52 104.62-26.25 63.328-11.719 136.22 36.75 184.64 48.469 48.469 121.31 62.953 184.64 36.75 63.328-26.25 104.58-88.031 104.58-156.56-0.09375-93.516-75.891-169.36-169.45-169.45zm0 301.4c-53.344 0-101.44-32.156-121.87-81.469-20.438-49.312-9.1406-106.03 28.594-143.76 37.734-37.734 94.5-49.031 143.81-28.594 49.312 20.391 81.422 68.531 81.422 121.87-0.09375 72.844-59.109 131.86-131.95 131.95z" fill="#fff"/>
 <path d="m600.28 1025.9h-10.5c-10.359 0-18.75 8.3906-18.75 18.75s8.3906 18.75 18.75 18.75h10.5c10.359 0 18.75-8.3906 18.75-18.75s-8.3906-18.75-18.75-18.75z" fill="#fff"/>
</svg>
