<?xml version="1.0" encoding="UTF-8"?>
<svg width="1200pt" height="1200pt" version="1.1" viewBox="0 0 1200 1200" xmlns="http://www.w3.org/2000/svg">
 <path d="m41.391 445.82v-249.61c0-37.125 54.797-68.25 143.39-88.547v-0.046874c104.67-21.469 211.31-31.641 318.14-30.328 106.83-1.3125 213.47 8.8594 318.14 30.328 88.594 20.297 143.39 51.422 143.39 88.547l-0.09375 2.1562 0.09375 480.98h136.4c31.781 0.32812 57.422 26.016 57.75 57.75h-0.046875v124.78h0.046875c0 15.094-6 29.531-16.688 40.219 10.641 10.828 16.641 25.359 16.688 40.547h-0.046875l-0.046875 123.19h0.09375c-0.046875 15.141-6.2344 29.672-17.109 40.172-10.828 10.688-25.406 16.688-40.641 16.734v-0.046874h-715.4v0.046874c-15.047 0.046876-29.484-5.8125-40.219-16.312-10.688-10.453-16.734-24.797-16.688-39.75v-12.422c-66.844-5.2031-132.98-17.625-197.21-36.984-57.328-19.125-89.953-44.578-89.953-73.781v-497.68zm33.797-1.4531 0.09375 1.4531c0 19.219 44.719 39.047 117.05 55.641 102.19 20.859 206.29 30.703 310.6 29.391 104.3 1.3125 208.4-8.5312 310.6-29.391 72.328-16.594 117.05-36.422 117.05-55.641h0.046876c0-0.65625 0-1.2656 0.09375-1.9219v-200.06c-33.984 19.688-71.062 33.516-109.59 40.922-104.67 21.469-211.36 31.641-318.19 30.328-106.83 1.3125-213.47-8.8594-318.14-30.328-38.531-7.4062-75.562-21.234-109.55-40.922v200.53zm109.59 90c-38.578-7.4062-75.609-21.234-109.59-40.922v198.94l0.09375 1.4531c0 13.031 24.188 27.609 66.656 41.766v0.046875c60.797 18.234 123.37 29.953 186.61 34.969v-33.609c0.09375-14.766 5.8125-28.969 16.078-39.609l0.98438-1.0781c10.781-10.875 25.359-17.016 40.641-17.109h544.5v-185.9c-33.984 19.688-71.062 33.562-109.64 40.969-104.67 21.516-211.36 31.734-318.19 30.422-106.83 1.3125-213.47-8.8594-318.14-30.328zm885.1 453.32h-326.29c-9.1875 0.23438-16.5 7.7344-16.5 16.922s7.3125 16.688 16.5 16.922h326.29c9.1875-0.23437 16.5-7.7344 16.5-16.922s-7.3125-16.688-16.5-16.922zm30.984 101.16c6.375 0 12.422-2.4844 16.969-6.9375 4.3594-4.2188 6.8906-10.031 6.8906-16.125h0.09375v-123.19h-0.046875c0-6.3281-2.4844-12.422-6.9375-16.922-4.2188-4.4062-10.031-6.8906-16.125-6.9375-236.68 0-480.47 5.7656-716.26 0-6.0938 0.046875-11.906 2.5781-16.125 6.9375-4.4062 4.5-6.8906 10.594-6.8906 16.922v124.03c-0.046875 5.8594 2.2969 11.531 6.4688 15.703 4.4531 4.2656 10.406 6.6094 16.547 6.5156v0.09375l715.4-0.046875zm0.79688-203.9 0.046875-0.046875c6.1406 0 12-2.4375 16.359-6.75 4.3125-4.3125 6.7031-10.172 6.6562-16.312h0.09375v-124.78h-0.046875c-0.32812-13.031-10.828-23.578-23.859-23.859h-714.66c-6.2812 0.09375-12.281 2.6719-16.688 7.1719l-0.70312 0.65625v0.046875c-4.0781 4.3125-6.375 10.078-6.4688 16.031v123.94c0 6.3281 2.4844 12.422 6.9375 16.969 4.2188 4.3594 10.031 6.8438 16.125 6.8906 235.6-1.4531 481.5-5.7656 716.26 0zm-773.11-23.906v-56.391c-66.844-5.25-132.98-17.672-197.21-37.031-19.688-6.1406-38.578-14.766-56.156-25.641v201.47h0.09375c0 13.031 24.188 27.609 66.656 41.812v-0.046875c60.797 18.234 123.37 30 186.61 35.016v-77.625c0.046875-15.188 6.0469-29.766 16.734-40.594l0.1875-0.1875-0.1875-0.1875v0.046875c-10.688-10.875-16.688-25.453-16.734-40.641zm741.32-78.938h-326.29c-9.1875 0.28125-16.5 7.7812-16.5 16.922 0 9.1875 7.3125 16.688 16.5 16.922h326.29c9.1875-0.23438 16.5-7.7344 16.5-16.922 0-9.1406-7.3125-16.641-16.5-16.922zm-139.26-585.94c0-19.219-44.719-39.047-117.05-55.641l-0.046875 0.046875c-102.19-20.906-206.29-30.75-310.6-29.438-104.3-1.3125-208.4 8.5312-310.6 29.438-72.328 16.641-117.05 36.422-117.05 55.594 0 19.219 44.719 39.047 117.05 55.641 102.19 20.906 206.29 30.75 310.6 29.438 104.3 1.3125 208.4-8.5312 310.6-29.438 72.328-16.594 117.05-36.422 117.05-55.641zm-489.47 807.61c0-0.89062-0.32812-1.7344-0.9375-2.3906-0.65625-0.65625-1.5469-1.0312-2.4844-1.0312-0.89062 0-1.7812 0.375-2.4375 1.0312l-0.375 0.375c-0.42188 0.60938-0.65625 1.3594-0.65625 2.0625 0 0.9375 0.375 1.8281 1.0312 2.4844s1.5469 1.0312 2.4375 0.98438c0.9375 0 1.7812-0.375 2.4375-0.98438 0.60938-0.65625 0.98438-1.5 0.98438-2.3906zm22.875-26.391c-6.9844-6.9844-16.5-10.922-26.391-10.922s-19.406 3.9375-26.391 10.922c-0.42188 0.42188-0.79688 0.84375-1.2188 1.3125-10.078 11.016-12.609 27-6.4219 40.594 6.1875 13.641 19.922 22.219 34.875 21.891 14.906-0.375 28.219-9.6094 33.75-23.484 5.5781-13.875 2.2969-29.719-8.2969-40.266zm-22.875-179.16c0-1.4062-0.84375-2.6719-2.1562-3.1875-1.3125-0.5625-2.7656-0.28125-3.75 0.75-1.0312 0.98438-1.3125 2.4844-0.79688 3.75 0.5625 1.3125 1.8281 2.1562 3.2344 2.1562 0.89062 0 1.7812-0.375 2.3906-1.0312 0.65625-0.60938 1.0312-1.5 1.0312-2.3906zm22.922-26.391c-12.609-12.609-32.344-14.531-47.109-4.6406-14.812 9.8906-20.578 28.828-13.781 45.281 6.8438 16.453 24.281 25.828 41.766 22.359s30.047-18.797 30.047-36.609c0-9.8906-3.9375-19.406-10.922-26.391z" fill="#fff" fill-rule="evenodd"/>
</svg>
