<?xml version="1.0" encoding="UTF-8"?>
<svg width="1200pt" height="1200pt" version="1.1" viewBox="0 0 1200 1200" xmlns="http://www.w3.org/2000/svg">
 <path d="m215.39 867.24c-9.9375 0-18-8.0625-18-18s8.0625-18 18-18h405.47c9.9375 0 18 8.0625 18 18s-8.0625 18-18 18zm0-123.79c-9.9375 0-18-8.0625-18-18s8.0625-18 18-18h405.47c9.9375 0 18 8.0625 18 18s-8.0625 18-18 18zm0-247.64c-9.9375 0-18-8.0625-18-18s8.0625-18 18-18h544.78c9.9375 0 18 8.0625 18 18s-8.0625 18-18 18zm0 123.84c-9.9375 0-18-8.0625-18-18s8.0625-18 18-18h544.78c9.9375 0 18 8.0625 18 18s-8.0625 18-18 18zm729.61-138.79 96.938 55.969 28.031-48.562c7.6875-13.266 9.2344-28.547 5.4844-42.422-3.7031-13.875-12.703-26.297-26.016-34.031-13.266-7.6875-28.594-9.2344-42.469-5.4844-13.875 3.7031-26.297 12.703-34.031 26.016l-28.031 48.516zm128.06 73.922 45.938 26.484c8.5781 4.9219 11.531 15.891 6.6094 24.469l-93.188 161.34c-4.9219 8.5781-15.891 11.531-24.469 6.6094s-11.531-15.891-6.6094-24.469l84.188-145.87-30.422-17.578-151.55 262.55v238.26c0 9.9375-8.0625 18-18 18h-795.52c-9.9375 0-18-8.0625-18-18v-972.98c0-9.9375 8.0625-18 18-18h544.5c4.9688 0 9.4688 1.7344 12.984 5.25l250.78 250.74c3.75 3.75 5.4844 8.6719 5.25 13.594l0.046875 0.89062v114.7l38.391-66.516c12.656-21.891 33.141-36.656 55.781-42.75 22.078-5.8594 46.406-3.6562 67.875 8.1562l3.0938 1.7344c21.188 12.656 35.531 32.812 41.531 55.078 5.9531 22.219 3.6562 46.688-8.3438 68.297l-28.781 49.875zm-48.984 13.125-96.938-55.969-184.64 319.82 96.984 55.969 184.64-319.82zm-212.06 345.47-78.938-45.562-10.172 105.14 89.109-59.531zm55.547-2.5781-6.0469 10.453c-1.5469 2.6719-3.6562 4.7812-6.1406 6.2812l-143.95 96.234c-8.25 5.5312-19.406 3.3281-24.891-4.9219-2.3906-3.5625-3.3281-7.6875-2.9531-11.672l16.547-170.58c0.23438-2.6719 1.0781-5.1562 2.3438-7.3125l166.03-287.58c-0.5625-1.7344-0.84375-3.6094-0.84375-5.5312v-153.84h-232.78c-9.9375 0-18-8.0625-18-18v-232.74h-508.74v936.98h759.52v-157.87zm-641.72 76.969c-8.0156 5.8125-19.266 3.9375-25.031-4.0781-5.8125-8.0156-3.9375-19.266 4.0781-25.031 25.688-18.562 55.828-27.797 85.875-27.797s60.188 9.2812 85.875 27.797c19.312 13.922 42.141 20.906 64.922 20.906 22.828 0 45.609-6.9844 64.922-20.906 8.0156-5.8125 19.266-3.9375 25.031 4.0781 5.8125 8.0156 3.9375 19.266-4.0781 25.031-25.688 18.562-55.828 27.797-85.875 27.797s-60.188-9.2344-85.875-27.797c-19.312-13.922-42.141-20.906-64.922-20.906-22.828 0-45.609 6.9844-64.922 20.906zm616.26-641.29-189.32-189.28v189.28z" fill="#fff"/>
</svg>
