<?xml version="1.0" encoding="UTF-8"?>
<svg width="1200pt" height="1200pt" version="1.1" viewBox="0 0 1200 1200" xmlns="http://www.w3.org/2000/svg">
 <path d="m737.39 496.45c22.875-1.2188 45.656-3.2812 67.594-5.8594 10.219-1.3125 17.484-10.641 16.266-20.859-1.2188-10.266-10.453-17.578-20.719-16.453-20.812 2.4844-42.422 4.3594-64.219 5.625-9.9844 0.79688-17.625 9.2812-17.344 19.312 0.28125 9.9844 8.3906 18.047 18.422 18.234z" fill="#fff"/>
 <path d="m870 480.28c23.484-3.9844 46.688-9.375 69.516-16.219 9.9375-2.9062 15.656-13.359 12.703-23.297-2.9062-9.9844-13.359-15.656-23.297-12.75-19.219 5.6719-40.266 10.734-62.484 15.047h-0.046875c-9.3281 2.0156-15.703 10.688-14.766 20.203 0.89062 9.5156 8.8125 16.828 18.375 17.016z" fill="#fff"/>
 <path d="m1089.8 463.13v-235.64c-6.4219-203.29-836.81-203.34-843.19 0 0.42187 107.11-0.28125 324.61 0 430.78-40.969 20.484-75.422 51.984-99.562 90.938-24.094 38.906-36.891 83.812-36.938 129.61 1.0781 244.74 319.69 337.78 452.81 136.13 33.656 3.0469 68.859 4.8281 105.28 4.8281 204.32 0 421.45-53.719 421.6-153.32 0.046874-0.046874-0.046876-403.26 0-403.31zm-732.74 168.74c-24.703-0.046875-49.312 3.7031-72.891 10.969v-114.09c159 109.5 472.69 103.5 655.26 53.016 40.641-10.312 78.938-28.266 112.83-53.016v135.71c0 28.969-47.25 60.703-123.42 83.062-84.984 22.828-172.69 33.844-260.63 32.859-29.672 0-58.594-1.3125-86.484-3.5625h-0.046875c-19.594-43.172-51.188-79.781-90.984-105.47-39.844-25.734-86.25-39.422-133.64-39.469zm695.21-168.79c-22.688 92.109-275.26 115.97-384.05 115.55-108.89 0.375-361.18-23.344-384.05-115.55v-169.31c70.875 56.906 231.05 87 384.05 87s313.18-30.094 384.05-87zm-384.05-351.32c226.31 0 384.05 60.984 384.05 115.73s-157.74 115.73-384.05 115.73c-226.31 0-384.05-60.984-384.05-115.73s157.69-115.73 384.05-115.73zm-311.16 976.45c-55.5-0.046875-108.75-22.172-147.98-61.406-39.281-39.234-61.359-92.484-61.406-147.98 11.484-277.78 407.34-277.69 418.78 0-0.046875 55.5-22.125 108.75-61.406 147.98-39.234 39.234-92.484 61.312-147.98 61.406zm311.16-105.98c-29.484 0-57.891-1.4062-85.5-3.4688h-0.046874c22.875-51.375 27.375-109.08 12.797-163.36 155.34 7.0781 338.76-2.9062 456.79-84.375v135.37c-0.046875 54.656-164.26 115.83-384.05 115.83z" fill="#fff"/>
 <path d="m372.66 717.37c-3.9844-4.4062-9.6094-6.9375-15.562-6.9375s-11.578 2.5312-15.562 6.9375l-92.438 114.98h0.046875c-4.5469 5.625-5.4375 13.359-2.3438 19.875 3.4688 7.0781 10.922 11.344 18.797 10.688h35.391v165.56c0 10.359 8.3906 18.75 18.75 18.75h74.719c10.359 0 18.75-8.3906 18.75-18.75v-165.56h37.219c7.1719-0.14062 13.688-4.2656 16.781-10.734 3.0938-6.5156 2.2969-14.156-2.1562-19.828zm21.797 108c-10.359 0-18.797 8.3906-18.797 18.75v165.56h-37.125v-165.56c0-10.359-8.3906-18.797-18.797-18.797h-16.828l54.141-67.406 54.188 67.406z" fill="#fff"/>
</svg>
